<svg width="48" height="48" viewBox="0 0 48 48" fill="none" xmlns="http://www.w3.org/2000/svg">
<path d="M17.9992 28C17.9992 28 20.6243 31 24.9993 31C29.3743 31 31.9993 28 31.9993 28M30.4993 18H30.5193M19.4992 18H19.5192M24.9993 40C34.3881 40 41.9992 32.3888 41.9992 23C41.9992 13.6112 34.3881 6 24.9993 6C15.6104 6 7.99925 13.6112 7.99925 23C7.99925 24.9 8.31094 26.7272 8.88599 28.4332C9.10239 29.0752 9.21059 29.3962 9.2301 29.6429C9.24938 29.8864 9.23481 30.0571 9.17456 30.2939C9.11354 30.5336 8.97884 30.783 8.70944 31.2816L5.43812 37.3367C4.9715 38.2004 4.73819 38.6323 4.79041 38.9655C4.83589 39.2558 5.00674 39.5115 5.2576 39.6645C5.5456 39.8402 6.03385 39.7897 7.01033 39.6887L17.2524 38.63C17.5625 38.598 17.7176 38.5819 17.859 38.5873C17.998 38.5927 18.0961 38.6057 18.2317 38.637C18.3696 38.6687 18.5429 38.7355 18.8896 38.8691C20.7857 39.5996 22.8457 40 24.9993 40ZM31.4993 18C31.4993 18.5523 31.0515 19 30.4993 19C29.947 19 29.4993 18.5523 29.4993 18C29.4993 17.4477 29.947 17 30.4993 17C31.0515 17 31.4993 17.4477 31.4993 18ZM20.4992 18C20.4992 18.5523 20.0515 19 19.4992 19C18.947 19 18.4992 18.5523 18.4992 18C18.4992 17.4477 18.947 17 19.4992 17C20.0515 17 20.4992 17.4477 20.4992 18Z" stroke="#DE5217" stroke-width="2" stroke-linecap="round" stroke-linejoin="round"/>
</svg>
